<svg width="159" height="26" viewBox="0 0 159 26" fill="none" xmlns="http://www.w3.org/2000/svg">
<path d="M1.19209e-07 0.549902H6.5V25.3999H1.19209e-07V0.549902ZM18.05 -9.84669e-05C19.5833 -9.84669e-05 21 0.199901 22.3 0.599901C23.6 0.999901 24.7333 1.61657 25.7 2.4499C26.6667 3.28323 27.4167 4.3499 27.95 5.6499C28.4833 6.91657 28.75 8.43323 28.75 10.1999V25.3999H22.25V11.3499C22.25 9.2499 21.7333 7.71657 20.7 6.7499C19.7 5.7499 18.05 5.2499 15.75 5.2499C14.0167 5.2499 12.45 5.58323 11.05 6.2499C9.65 6.91657 8.51667 7.76657 7.65 8.7999C6.78333 9.7999 6.28333 10.8499 6.15 11.9499L6.1 9.3999C6.26667 8.23323 6.65 7.0999 7.25 5.9999C7.85 4.8999 8.65 3.8999 9.65 2.9999C10.6833 2.06657 11.9 1.33324 13.3 0.799902C14.7 0.266568 16.2833 -9.84669e-05 18.05 -9.84669e-05ZM57.318 17.1499H63.618C63.3513 18.8499 62.6346 20.3666 61.468 21.6999C60.3346 23.0332 58.7846 24.0832 56.818 24.8499C54.8513 25.6166 52.4513 25.9999 49.618 25.9999C46.4513 25.9999 43.6513 25.4999 41.218 24.4999C38.7846 23.4666 36.8846 21.9832 35.518 20.0499C34.1513 18.1166 33.468 15.7832 33.468 13.0499C33.468 10.3166 34.1346 7.98323 35.468 6.0499C36.8013 4.08323 38.6513 2.58323 41.018 1.5499C43.418 0.516568 46.218 -9.84669e-05 49.418 -9.84669e-05C52.6846 -9.84669e-05 55.4013 0.516568 57.568 1.5499C59.7346 2.58323 61.3346 4.1499 62.368 6.2499C63.4346 8.31657 63.8846 10.9666 63.718 14.1999H40.018C40.1846 15.4666 40.6513 16.6166 41.418 17.6499C42.218 18.6832 43.2846 19.4999 44.618 20.0999C45.9846 20.6999 47.6013 20.9999 49.468 20.9999C51.5346 20.9999 53.2513 20.6499 54.618 19.9499C56.018 19.2166 56.918 18.2832 57.318 17.1499ZM49.118 4.9499C46.718 4.9499 44.768 5.48324 43.268 6.5499C41.768 7.58324 40.8013 8.86657 40.368 10.3999H57.268C57.1013 8.73323 56.3013 7.41657 54.868 6.4499C53.468 5.4499 51.5513 4.9499 49.118 4.9499ZM95.5328 0.549902L82.6328 14.3999L73.3328 25.3999H65.3828L78.8328 10.8499L87.6328 0.549902H95.5328ZM65.3828 0.549902H73.3328L82.7328 10.7499L96.2328 25.3999H88.2828L78.6328 14.5499L65.3828 0.549902ZM128.994 25.3999H122.494V0.549902H128.994V25.3999ZM122.844 13.4499L122.894 15.1499C122.827 15.6166 122.661 16.2999 122.394 17.1999C122.127 18.0666 121.711 18.9999 121.144 19.9999C120.611 20.9999 119.911 21.9666 119.044 22.8999C118.177 23.7999 117.111 24.5499 115.844 25.1499C114.577 25.7166 113.077 25.9999 111.344 25.9999C109.977 25.9999 108.627 25.8332 107.294 25.4999C105.994 25.1666 104.811 24.6166 103.744 23.8499C102.677 23.0499 101.827 21.9832 101.194 20.6499C100.561 19.3166 100.244 17.6332 100.244 15.5999V0.549902H106.744V14.4999C106.744 16.0999 106.994 17.3666 107.494 18.2999C108.027 19.1999 108.794 19.8332 109.794 20.1999C110.794 20.5666 111.977 20.7499 113.344 20.7499C115.144 20.7499 116.694 20.3666 117.994 19.5999C119.294 18.7999 120.344 17.8332 121.144 16.6999C121.977 15.5666 122.544 14.4832 122.844 13.4499ZM133.912 17.1499H139.912C140.279 18.2832 141.029 19.2166 142.162 19.9499C143.329 20.6499 144.845 20.9999 146.712 20.9999C147.979 20.9999 148.962 20.8832 149.662 20.6499C150.362 20.4166 150.845 20.0832 151.112 19.6499C151.379 19.1832 151.512 18.6666 151.512 18.0999C151.512 17.3999 151.295 16.8666 150.862 16.4999C150.429 16.0999 149.762 15.7832 148.862 15.5499C147.962 15.3166 146.812 15.0999 145.412 14.8999C144.012 14.6666 142.662 14.3832 141.362 14.0499C140.062 13.7166 138.912 13.2832 137.912 12.7499C136.912 12.1832 136.112 11.4832 135.512 10.6499C134.945 9.78324 134.662 8.73324 134.662 7.4999C134.662 6.2999 134.945 5.23323 135.512 4.2999C136.112 3.36657 136.929 2.58323 137.962 1.9499C139.029 1.31657 140.262 0.833234 141.662 0.499901C143.095 0.166568 144.629 -9.84669e-05 146.262 -9.84669e-05C148.729 -9.84669e-05 150.779 0.366568 152.412 1.0999C154.045 1.7999 155.262 2.7999 156.062 4.0999C156.895 5.36657 157.312 6.83323 157.312 8.4999H151.562C151.295 7.26657 150.762 6.38323 149.962 5.8499C149.162 5.28323 147.929 4.9999 146.262 4.9999C144.629 4.9999 143.395 5.2499 142.562 5.7499C141.729 6.2499 141.312 6.93323 141.312 7.7999C141.312 8.4999 141.562 9.0499 142.062 9.4499C142.595 9.81657 143.362 10.1166 144.362 10.3499C145.395 10.5832 146.679 10.8332 148.212 11.0999C149.512 11.3666 150.745 11.6666 151.912 11.9999C153.112 12.3332 154.179 12.7666 155.112 13.2999C156.045 13.7999 156.779 14.4832 157.312 15.3499C157.879 16.1832 158.162 17.2499 158.162 18.5499C158.162 20.1499 157.695 21.4999 156.762 22.5999C155.862 23.6999 154.562 24.5499 152.862 25.1499C151.162 25.7166 149.129 25.9999 146.762 25.9999C144.662 25.9999 142.845 25.7832 141.312 25.3499C139.812 24.8832 138.562 24.2999 137.562 23.5999C136.562 22.8666 135.779 22.0999 135.212 21.2999C134.679 20.4666 134.312 19.6832 134.112 18.9499C133.912 18.2166 133.845 17.6166 133.912 17.1499Z" fill="white"/>
</svg>
